<?xml version="1.0" encoding="UTF-8" standalone="no"?>
<!-- Uploaded to: SVG Repo, www.svgrepo.com, Generator: SVG Repo Mixer Tools -->

<svg
   fill="#000000"
   version="1.1"
   id="Capa_1"
   width="800px"
   height="800px"
   viewBox="0 0 473.068 473.068"
   xml:space="preserve"
   sodipodi:docname="icon_active_new.svg"
   inkscape:version="1.4 (e7c3feb, 2024-10-09)"
   inkscape:export-filename="icon_active_new.png"
   inkscape:export-xdpi="96"
   inkscape:export-ydpi="96"
   xmlns:inkscape="http://www.inkscape.org/namespaces/inkscape"
   xmlns:sodipodi="http://sodipodi.sourceforge.net/DTD/sodipodi-0.dtd"
   xmlns:xlink="http://www.w3.org/1999/xlink"
   xmlns="http://www.w3.org/2000/svg"
   xmlns:svg="http://www.w3.org/2000/svg"><defs
   id="defs3"><linearGradient
     id="linearGradient5"
     inkscape:collect="always"><stop
       style="stop-color:#e34343;stop-opacity:1;"
       offset="0.1"
       id="stop7" /><stop
       style="stop-color:#e57e7e;stop-opacity:1;"
       offset="1"
       id="stop8" /></linearGradient><linearGradient
     id="linearGradient3"><stop
       style="stop-color:#826aaf;stop-opacity:1;"
       offset="0"
       id="stop5" /><stop
       style="stop-color:#bca4e8;stop-opacity:1;"
       offset="1"
       id="stop6" /></linearGradient><linearGradient
     id="linearGradient3-1"><stop
       style="stop-color:#826aaf;stop-opacity:1;"
       offset="0"
       id="stop3" /><stop
       style="stop-color:#bca4e8;stop-opacity:1;"
       offset="1"
       id="stop4" /></linearGradient><linearGradient
     inkscape:collect="always"
     xlink:href="#linearGradient3-1"
     id="linearGradient4"
     x1="75.852226"
     y1="279.58859"
     x2="397.21677"
     y2="193.47943"
     gradientUnits="userSpaceOnUse" /><linearGradient
     inkscape:collect="always"
     xlink:href="#linearGradient3-1"
     id="linearGradient2"
     x1="128.44408"
     y1="122.09696"
     x2="343.84094"
     y2="122.09696"
     gradientUnits="userSpaceOnUse"
     gradientTransform="translate(0,17.662114)" /><linearGradient
     inkscape:collect="always"
     xlink:href="#linearGradient5"
     id="linearGradient8"
     x1="322.22333"
     y1="412.65112"
     x2="432.00037"
     y2="412.65112"
     gradientUnits="userSpaceOnUse"
     spreadMethod="repeat"
     gradientTransform="translate(15.795258,-2.3692888)" /><filter
     style="color-interpolation-filters:sRGB;"
     inkscape:label="Drop Shadow"
     id="filter9"
     x="-0.37603489"
     y="-0.37603489"
     width="1.806726"
     height="1.806726"><feFlood
       result="flood"
       in="SourceGraphic"
       flood-opacity="0.498039"
       flood-color="rgb(0,0,0)"
       id="feFlood8" /><feGaussianBlur
       result="blur"
       in="SourceGraphic"
       stdDeviation="3.000000"
       id="feGaussianBlur8" /><feOffset
       result="offset"
       in="blur"
       dx="6.000000"
       dy="6.000000"
       id="feOffset8" /><feComposite
       result="comp1"
       operator="in"
       in="flood"
       in2="offset"
       id="feComposite8" /><feComposite
       result="fbSourceGraphic"
       operator="over"
       in="SourceGraphic"
       in2="comp1"
       id="feComposite9" /><feColorMatrix
       result="fbSourceGraphicAlpha"
       in="fbSourceGraphic"
       values="0 0 0 -1 0 0 0 0 -1 0 0 0 0 -1 0 0 0 0 1 0"
       id="feColorMatrix40" /><feFlood
       id="feFlood40"
       result="flood"
       in="fbSourceGraphic"
       flood-opacity="0.129412"
       flood-color="rgb(138,138,138)" /><feGaussianBlur
       id="feGaussianBlur40"
       result="blur"
       in="fbSourceGraphic"
       stdDeviation="7.100000" /><feOffset
       id="feOffset40"
       result="offset"
       in="blur"
       dx="0.000000"
       dy="0.000000" /><feComposite
       id="feComposite40"
       result="comp1"
       operator="in"
       in="flood"
       in2="offset" /><feComposite
       id="feComposite41"
       result="fbSourceGraphic"
       operator="over"
       in="fbSourceGraphic"
       in2="comp1" /><feColorMatrix
       result="fbSourceGraphicAlpha"
       in="fbSourceGraphic"
       values="0 0 0 -1 0 0 0 0 -1 0 0 0 0 -1 0 0 0 0 1 0"
       id="feColorMatrix41" /><feFlood
       id="feFlood41"
       result="flood"
       in="fbSourceGraphic"
       flood-opacity="0.129412"
       flood-color="rgb(138,138,138)" /><feGaussianBlur
       id="feGaussianBlur41"
       result="blur"
       in="fbSourceGraphic"
       stdDeviation="7.100000" /><feOffset
       id="feOffset41"
       result="offset"
       in="blur"
       dx="0.000000"
       dy="0.000000" /><feComposite
       id="feComposite42"
       result="comp1"
       operator="in"
       in="flood"
       in2="offset" /><feComposite
       id="feComposite43"
       result="comp2"
       operator="over"
       in="fbSourceGraphic"
       in2="comp1" /></filter></defs><sodipodi:namedview
   id="namedview3"
   pagecolor="#ffffff"
   bordercolor="#000000"
   borderopacity="0.25"
   inkscape:showpageshadow="2"
   inkscape:pageopacity="0.0"
   inkscape:pagecheckerboard="0"
   inkscape:deskcolor="#d1d1d1"
   inkscape:zoom="0.74875"
   inkscape:cx="382.63773"
   inkscape:cy="337.22871"
   inkscape:window-width="1585"
   inkscape:window-height="1025"
   inkscape:window-x="0"
   inkscape:window-y="0"
   inkscape:window-maximized="1"
   inkscape:current-layer="g3" />
<g
   id="g3">
	<g
   id="Layer_2_32_">
		<g
   id="g2"
   style="fill:#725ff2;fill-opacity:1">
			<path
   d="M355.498,181.955c8.8-6.139,29.396-20.519,29.396-55.351v-71.77h9.819c4.492,0,8.171-3.679,8.171-8.169v-38.5     c0-4.49-3.679-8.165-8.171-8.165H78.348c-4.494,0-8.164,3.675-8.164,8.165v38.5c0,4.491,3.67,8.169,8.164,8.169h9.822v73.071     c0,34.499,10.506,42.576,29.068,53.89l80.75,49.203v20.984c-20.336,12.23-73.464,44.242-80.429,49.107     c-8.792,6.135-29.388,20.51-29.388,55.352v61.793h-9.822c-4.494,0-8.164,3.676-8.164,8.166v38.498c0,4.49,3.67,8.17,8.164,8.17     h316.365c4.492,0,8.171-3.68,8.171-8.17V426.4c0-4.49-3.679-8.166-8.171-8.166h-9.819v-63.104     c0-34.493-10.506-42.572-29.073-53.885l-80.741-49.202v-20.987C295.41,218.831,348.541,186.822,355.498,181.955z      M252.725,272.859l87.797,53.5c6.749,4.109,10.342,6.373,12.001,9.002c1.996,3.164,2.962,9.627,2.962,19.768v63.104H117.571     v-61.793c0-19.507,9.719-26.289,16.816-31.242c5.545-3.865,54.391-33.389,85.873-52.289c4.422-2.658,7.13-7.441,7.13-12.611     v-37.563c0-5.123-2.667-9.883-7.053-12.55l-87.806-53.504c-6.736-4.105-10.328-6.369-11.991-9.009     c-2-3.156-2.971-9.626-2.971-19.767V54.835h237.915v71.77c0,19.5-9.719,26.288-16.812,31.235     c-5.545,3.872-54.387,33.395-85.873,52.295c-4.426,2.658-7.135,7.442-7.135,12.601v37.563     C245.666,265.431,248.345,270.188,252.725,272.859z"
   id="path1"
   style="fill:url(#linearGradient4);fill-opacity:1" />
			<path
   d="m 340.73202,133.64958 c 2,-1.494 3.08171,-2.50204 3.099,-6.07 l 0.27922,-57.612544 c 0,0 0.394,-3.707 -3.781,-3.707 -2.026,0 -52.428,-0.055 -103.912,-0.111 -51.482,0.057 -101.888,0.111 -103.907,0.111 -4.171,0 -3.777,3.707 -3.777,3.707 l -0.27922,57.612544 c -0.0173,3.56796 1.102,4.576 3.094,6.07 14.13,10.562 76.944,60.125 104.591,60.125 27.655,0.002 90.472,-49.564 104.593,-60.125 z"
   id="path2"
   style="fill:url(#linearGradient2);fill-opacity:1"
   sodipodi:nodetypes="cscscscsccc" />
		</g>
	</g>
<circle
   style="fill:url(#linearGradient8);fill-opacity:1;stroke-width:0.60344;filter:url(#filter9)"
   id="path3"
   cx="392.9071"
   cy="410.28183"
   r="54.888523"
   inkscape:label="notification"
   transform="matrix(1.7167463,0,0,1.7167463,-333.51999,-346.76302)" /></g>
</svg>
